<?xml version="1.0" encoding="utf-8"?>
<!-- Generator: Adobe Illustrator 24.0.2, SVG Export Plug-In . SVG Version: 6.00 Build 0)  -->
<svg version="1.1" id="Capa_1" xmlns="http://www.w3.org/2000/svg" xmlns:xlink="http://www.w3.org/1999/xlink" x="0px" y="0px"
	 viewBox="0 0 56.7 56.7" style="enable-background:new 0 0 56.7 56.7;" xml:space="preserve">
<style type="text/css">
	.st0{fill:#FFFFFF;}
</style>
<title>instagram</title>
<path class="st0" d="M28.3,13.7c4.8,0,5.3,0,7.2,0.1c1.1,0,2.2,0.2,3.3,0.6c1.6,0.6,2.8,1.8,3.4,3.4c0.4,1.1,0.6,2.2,0.6,3.3
	C43,23,43,23.6,43,28.3s0,5.3-0.1,7.2c0,1.1-0.2,2.2-0.6,3.3c-0.6,1.6-1.8,2.8-3.4,3.4c-1.1,0.4-2.2,0.6-3.3,0.6
	C33.7,43,33.1,43,28.3,43s-5.3,0-7.2-0.1c-1.1,0-2.3-0.2-3.3-0.6c-1.6-0.6-2.8-1.8-3.4-3.4c-0.4-1.1-0.6-2.2-0.6-3.3
	c-0.1-1.9-0.1-2.5-0.1-7.2s0-5.3,0.1-7.2c0-1.1,0.2-2.2,0.6-3.3c0.6-1.6,1.8-2.8,3.4-3.4c1.1-0.4,2.2-0.6,3.3-0.6
	C23,13.7,23.6,13.7,28.3,13.7 M28.3,10.5c-4.8,0-5.5,0-7.4,0.1c-1.5,0-2.9,0.3-4.3,0.8c-1.2,0.4-2.3,1.1-3.2,2
	c-0.9,0.9-1.6,2-2.1,3.2c-0.5,1.4-0.8,2.9-0.8,4.3c-0.1,1.9-0.1,2.5-0.1,7.4s0,5.4,0.1,7.4c0,1.5,0.3,2.9,0.8,4.3
	c0.9,2.4,2.8,4.3,5.2,5.2c1.4,0.5,2.9,0.8,4.3,0.8c1.9,0.1,2.5,0.1,7.4,0.1s5.5,0,7.4-0.1c1.5,0,2.9-0.3,4.3-0.8
	c1.2-0.5,2.3-1.2,3.2-2.1c0.9-0.9,1.6-2,2-3.2c0.5-1.4,0.8-2.9,0.9-4.4c0.1-1.9,0.1-2.5,0.1-7.4s0-5.5-0.1-7.4
	c0-1.5-0.3-2.9-0.8-4.3c-0.9-2.4-2.8-4.3-5.2-5.2c-1.4-0.5-2.8-0.8-4.3-0.9C33.8,10.5,33.2,10.5,28.3,10.5L28.3,10.5z"/>
<path class="st0" d="M28.3,19.2c-5.1,0-9.2,4.1-9.2,9.2s4.1,9.2,9.2,9.2s9.2-4.1,9.2-9.2l0,0C37.5,23.3,33.4,19.2,28.3,19.2
	C28.4,19.2,28.3,19.2,28.3,19.2z M28.3,34.3c-3.3,0-6-2.6-6-5.9c0-3.3,2.6-6,5.9-6s6,2.6,6,5.9c0,0,0,0,0,0
	C34.3,31.6,31.6,34.3,28.3,34.3z"/>
<circle class="st0" cx="37.9" cy="18.8" r="2.1"/>
</svg>
