<svg id="Capa_1" data-name="Capa 1" xmlns="http://www.w3.org/2000/svg" viewBox="0 0 255.12 229.94"><defs><style>.cls-1{fill:#fff;}</style></defs><title>logo-riba</title><polygon class="cls-1" points="42.84 208.25 43.92 210.27 43.92 217.49 45.2 219.9 51.98 221.7 51.98 224.92 51.45 225.91 48.48 225.91 47.95 224.92 47.95 223.74 43.92 223.74 43.92 225.91 46.03 229.94 53.9 229.94 56.01 225.91 56.01 220.55 54.8 218.32 47.95 216.49 47.95 212.28 51.39 212.28 51.98 213.4 51.98 214.45 56.01 214.45 56.01 212.28 53.84 208.25 42.84 208.25"/><polygon class="cls-1" points="58.1 208.25 59.18 210.27 59.18 229.94 63.21 229.94 63.21 212.28 66.64 212.28 67.3 213.46 67.3 216.74 64.57 221.88 69.16 221.88 71.26 217.86 71.26 212.34 69.09 208.25 58.1 208.25"/><path class="cls-1" d="M105.39,242.18l1.08,2v15.64l2.11,4h10V246.21l-2.17-4Zm9.14,17.66H111l-.53-1V246.21h3.44l.59,1.11Z" transform="translate(-32.49 -33.93)"/><polygon class="cls-1" points="88.39 208.25 89.48 210.27 89.48 229.94 93.5 229.94 93.5 212.28 96.94 212.28 97.59 213.46 97.59 216.74 94.87 221.88 95.89 221.88 97.47 229.94 101.56 229.94 99.86 221.14 101.56 217.86 101.56 212.34 99.39 208.25 88.39 208.25"/><polygon class="cls-1" points="105.93 208.25 103.76 212.28 108.96 212.28 108.96 229.94 112.99 229.94 112.99 212.28 118.19 212.28 116.03 208.25 105.93 208.25"/><polygon class="cls-1" points="133 212.28 130.83 208.25 119.83 208.25 120.92 210.27 120.92 217.49 122.18 219.9 128.97 221.7 128.97 224.92 128.44 225.91 120.92 225.91 123.02 229.94 130.89 229.94 133 225.91 133 220.55 131.79 218.32 124.94 216.49 124.94 212.28 133 212.28"/><polygon class="cls-1" points="158.58 222.25 155.08 212.65 151.58 222.25 148.88 208.25 144.77 208.25 148.61 227.95 147.52 229.94 153.07 229.94 155.08 224.39 157.09 229.94 161.18 229.94 165.4 208.25 161.28 208.25 158.58 222.25"/><polygon class="cls-1" points="180.78 212.28 178.61 208.25 167.62 208.25 168.7 210.27 168.7 229.94 178.61 229.94 180.78 225.91 172.73 225.91 172.73 221.11 174.87 221.11 177.03 217.08 172.73 217.08 172.73 212.28 180.78 212.28"/><path class="cls-1" d="M225.07,242.18h-5.42L217,255.66h-1.45l1.08,2-.84,4.21-1.05,2H221l-1.06-2,.44-2.23h4l.44,2.2-1.09,2H230l-1.05-2Zm-3.93,13.48,1.24-6.35,1.24,6.35Z" transform="translate(-32.49 -33.93)"/><polygon class="cls-1" points="199.11 208.25 200.2 210.27 200.2 229.94 204.22 229.94 204.22 212.28 207.66 212.28 208.31 213.46 208.31 216.74 205.59 221.88 206.61 221.88 208.19 229.94 212.28 229.94 210.57 221.14 212.28 217.86 212.28 212.34 210.11 208.25 199.11 208.25"/><polygon class="cls-1" points="92.65 146.24 106.3 144.75 106.7 31.41 93.25 31.41 92.65 146.24"/><path class="cls-1" d="M100.93,163.16l.6-97.82H63.76V196.42l13-4.84.08-22.76L81,167.69,91.82,187l14.88-3.61L95.61,164.24Zm-13.3-9.36L76.9,156.23l.26-78.3L88,77.59Z" transform="translate(-32.49 -33.93)"/><path class="cls-1" d="M198.4,65.34H160V177.8a260.07,260.07,0,0,1,38.41,2.86L198,114.33l-7.61-4,7.55-7.63ZM173.47,76.59h11V98.1l-10.9,11Zm.21,90.32L173.56,115l11,5.33.19,47.35C181.08,167.34,177.41,167.09,173.68,166.91Z" transform="translate(-32.49 -33.93)"/><path class="cls-1" d="M219.31,184.68l13.35,3.52-.22-44.31,10.74,2.16.15,45.53,13,4.84V65.34H218.58ZM243.13,77.59v55.87l-10.76-1.82-.27-54Z" transform="translate(-32.49 -33.93)"/><path class="cls-1" d="M282.28,34.13H68.1c-9.91,0-19.94-.45-29.85,0h-.43a5.47,5.47,0,0,0-5.33,5.45v194c0,4.47,4.45,6.33,8,4.7,29.43-13.42,60.88-22.76,93-25.95a269.18,269.18,0,0,1,93,7.14,316.41,316.41,0,0,1,53.06,18.81,5.67,5.67,0,0,0,6.07-.53,5,5,0,0,0,1.95-4.17v-194A5.47,5.47,0,0,0,282.28,34.13ZM187.84,201.58a277.77,277.77,0,0,0-97.77,7.55,323.57,323.57,0,0,0-46.92,16.21V45H272.24c1.53,0,3.12.1,4.71.15V225.36C248.46,213.19,218.65,204.8,187.84,201.58Z" transform="translate(-32.49 -33.93)"/></svg>