<svg id="Capa_1" data-name="Capa 1" xmlns="http://www.w3.org/2000/svg" viewBox="0 0 132.15 89.2"><title>mail-contacto</title><path d="M14,35.5l.18-.15.15-.09.19-.13.15-.08.21-.11.16-.07.21-.09.16-.06.23-.07.16,0,.24-.05.16,0,.27,0,.14,0,.41,0H139.25l.41,0,.14,0,.27,0,.16,0,.24.05.16,0,.22.07.17.06.21.09.16.07.2.11.16.08.19.13.14.09.19.15.1.08L81.63,96.32a4.95,4.95,0,0,1-7,0L13.89,35.57l.1-.07ZM12.05,47.76,43.38,79.08,12.05,110.4Zm127.2,75.88H17.09A4.91,4.91,0,0,1,14,122.51L50.39,86.09l17.23,17.23a14.85,14.85,0,0,0,21,0L106,86l36.48,36.47a5,5,0,0,1-3.18,1.16Zm4.95-13.4L113,79,144.2,47.76Z" transform="translate(-12.05 -34.44)"/></svg>