<?xml version="1.0" encoding="utf-8"?>
<!-- Generator: Adobe Illustrator 24.0.2, SVG Export Plug-In . SVG Version: 6.00 Build 0)  -->
<svg version="1.1" id="Capa_1" xmlns="http://www.w3.org/2000/svg" xmlns:xlink="http://www.w3.org/1999/xlink" x="0px" y="0px"
	 viewBox="0 0 56.7 56.7" style="enable-background:new 0 0 56.7 56.7;" xml:space="preserve">
<style type="text/css">
	.st0{fill:#FFFFFF;}
</style>
<title>mail</title>
<path class="st0" d="M42.9,42.8H13.8c-2.7,0-4.9-2.2-5-4.9v-18c0-2.7,2.2-4.9,5-4.9h29.1c2.7,0,4.9,2.2,4.9,4.9v18
	C47.8,40.6,45.6,42.8,42.9,42.8z M13.8,17.7c-1.2,0-2.2,1-2.2,2.2c0,0,0,0,0,0v18c0,1.2,1,2.2,2.2,2.2h29.1c1.2,0,2.2-1,2.2-2.2v-18
	c0-1.2-1-2.2-2.2-2.2L13.8,17.7z"/>
<polygon class="st0" points="28.4,33.4 10.5,18.2 12.3,16.1 28.4,29.8 44.4,16.1 46.2,18.2 "/>
<rect x="38.1" y="24.9" transform="matrix(0.7579 -0.6524 0.6524 0.7579 -12.4944 33.9387)" class="st0" width="2.7" height="17.8"/>
<rect x="8.3" y="32.4" transform="matrix(0.6524 -0.7579 0.7579 0.6524 -19.635 24.8046)" class="st0" width="17.8" height="2.7"/>
</svg>
