<?xml version="1.0" encoding="utf-8"?>
<!-- Generator: Adobe Illustrator 24.0.2, SVG Export Plug-In . SVG Version: 6.00 Build 0)  -->
<svg version="1.1" id="Capa_1" xmlns="http://www.w3.org/2000/svg" xmlns:xlink="http://www.w3.org/1999/xlink" x="0px" y="0px"
	 viewBox="0 0 85.6 48.2" style="enable-background:new 0 0 85.6 48.2;" xml:space="preserve">
<style type="text/css">
	.st0{fill:#FFFFFF;}
</style>
<title>riba-alternativo</title>
<polygon class="st0" points="31.9,41.7 26.8,42.2 27,0 32,0 "/>
<path class="st0" d="M13.7,36l0.2-36H0v48.2l4.8-1.8v-8.4l1.5-0.4l4,7.1l5.5-1.3l-4.1-7L13.7,36z M8.8,32.5l-4,0.9L4.9,4.6l4-0.1
	L8.8,32.5z"/>
<path class="st0" d="M59.2,0H45v41.4c4.7,0,9.5,0.3,14.1,1L59,18l-2.8-1.5l2.8-2.7L59.2,0z M50,4.1h4V12l-4,4.1V4.1z M50.1,37.4
	V18.3l4,2l0.1,17.4C52.8,37.5,51.4,37.4,50.1,37.4L50.1,37.4z"/>
<path class="st0" d="M85.6,0H71.7L72,43.9l4.9,1.3l-0.1-16.3l4,0.8l0.1,16.7l4.8,1.8L85.6,0z M80.8,25.1l-4-0.7L76.7,4.5h4.1
	L80.8,25.1z"/>
</svg>
