<?xml version="1.0" encoding="utf-8"?>
<!-- Generator: Adobe Illustrator 24.0.2, SVG Export Plug-In . SVG Version: 6.00 Build 0)  -->
<svg version="1.1" id="Capa_1" xmlns="http://www.w3.org/2000/svg" xmlns:xlink="http://www.w3.org/1999/xlink" x="0px" y="0px"
	 viewBox="0 0 255.1 172" style="enable-background:new 0 0 255.1 172;" xml:space="preserve">
<title>logo-riba</title>
<polygon points="81.8,150.7 99.7,148.7 100.2,0 82.5,0 "/>
<path d="M50,128.4L50.8,0H1.2v172l17.1-6.4l0.1-29.9l5.5-1.5L38,159.6l19.5-4.7L43,129.8L50,128.4z M32.5,116.1l-14.1,3.2l0.3-102.7
	L33,16.1L32.5,116.1z"/>
<path d="M177.9,0h-50.4v147.6c16.9,0,33.7,1.3,50.4,3.8l-0.5-87l-10-5.2l9.9-10L177.9,0z M145.2,14.8h14.4V43l-14.3,14.4L145.2,14.8
	z M145.4,133.3l-0.2-68.1l14.4,7l0.2,62.1C155.2,133.8,150.3,133.5,145.4,133.3L145.4,133.3z"/>
<path d="M205.3,156.6l17.5,4.6l-0.3-58.1l14.1,2.8l0.2,59.7l17.1,6.4V0h-49.5L205.3,156.6z M236.6,16.1v73.3L222.5,87l-0.4-70.9
	L236.6,16.1z"/>
</svg>
