<svg id="Capa_1" data-name="Capa 1" xmlns="http://www.w3.org/2000/svg" viewBox="0 0 120.54 120.54"><title>tel-contacto</title><path d="M11.6,25.43a14.17,14.17,0,0,1,14.16-14.2h19A14.12,14.12,0,0,1,58.83,23.75,69.59,69.59,0,0,0,61.4,36.16a14.14,14.14,0,0,1-3.49,14.18L50.21,58A88.81,88.81,0,0,0,85.33,93.16l7.7-7.7A14.13,14.13,0,0,1,107.21,82a69.67,69.67,0,0,0,12.4,2.57A14.12,14.12,0,0,1,132.14,98.6v19a14.19,14.19,0,0,1-15.5,14.1A115.25,115.25,0,0,1,77.5,121,115.92,115.92,0,0,1,45.22,98.15,115.92,115.92,0,0,1,22.4,65.87,115.25,115.25,0,0,1,11.66,26.73c0-.43-.06-.87-.06-1.3Z" transform="translate(-11.6 -11.23)"/></svg>