<?xml version="1.0" encoding="utf-8"?>
<!-- Generator: Adobe Illustrator 24.0.2, SVG Export Plug-In . SVG Version: 6.00 Build 0)  -->
<svg version="1.1" id="Capa_1" xmlns="http://www.w3.org/2000/svg" xmlns:xlink="http://www.w3.org/1999/xlink" x="0px" y="0px"
	 viewBox="0 0 56.7 56.7" style="enable-background:new 0 0 56.7 56.7;" xml:space="preserve">
<style type="text/css">
	.st0{fill-rule:evenodd;clip-rule:evenodd;fill:#FFFFFF;}
</style>
<title>whatsapp</title>
<g id="WA_Logo">
	<path class="st0" d="M42,15.1c-7.1-6.9-18.5-6.8-25.5,0.3c-5.6,5.7-6.7,14.4-2.8,21.4l-2.5,9.3l9.5-2.5c2.6,1.4,5.6,2.2,8.6,2.2
		l0,0c9.9-0.1,18-8.2,17.9-18.1C47.2,22.9,45.3,18.4,42,15.1z M29.3,42.7L29.3,42.7c-2.7,0-5.3-0.7-7.6-2.1l-0.5-0.3l-5.6,1.5
		l1.5-5.5l-0.4-0.6c-4.4-7-2.3-16.2,4.7-20.6s16.2-2.3,20.6,4.7s2.3,16.2-4.7,20.6C34.8,41.9,32.1,42.7,29.3,42.7z M37.5,31.5
		c-0.5-0.2-2.7-1.3-3.1-1.5s-0.7-0.2-1,0.2S32.2,31.7,32,32s-0.5,0.3-1,0.1c-1.3-0.5-2.5-1.3-3.6-2.2c-1-0.9-1.8-2-2.5-3.1
		c-0.3-0.5,0-0.7,0.2-0.9s0.5-0.5,0.7-0.8c0.2-0.2,0.3-0.5,0.5-0.8c0.1-0.2,0.1-0.5,0-0.8c-0.1-0.2-1-2.4-1.4-3.3s-0.7-0.8-1-0.8
		s-0.6,0-0.9,0c-0.5,0-0.9,0.2-1.2,0.6c-1,1-1.6,2.3-1.6,3.8c0.1,1.7,0.8,3.3,1.8,4.6c0.2,0.3,3.2,4.8,7.7,6.8
		c1.1,0.5,1.9,0.7,2.6,1c0.9,0.3,1.9,0.3,2.8,0.2c0.9-0.1,2.7-1.1,3-2.1c0.3-0.7,0.4-1.4,0.3-2.1C38.2,31.9,37.9,31.7,37.5,31.5z"/>
</g>
</svg>
